Coordinates
version=1
nRows=7
nColumns=60
inDegrees=yes

Units are S.I. units (second, meters, Newtons, ...)
If the header above contains a line with 'inDegrees', this indicates whether rotational values are in degrees (yes) or radians (no).

endheader
time	pelvis_tilt	pelvis_list	pelvis_rotation	pelvis_tx	pelvis_ty	pelvis_tz	hip_flexion_r	hip_adduction_r	hip_rotation_r	knee_angle_r_beta	knee_angle_r	ankle_angle_r	subtalar_angle_r	mtp_angle_r	hip_flexion_l	hip_adduction_l	hip_rotation_l	knee_angle_l_beta	knee_angle_l	ankle_angle_l	subtalar_angle_l	mtp_angle_l	L5_S1_Flex_Ext	L5_S1_Lat_Bending	L5_S1_axial_rotation	L4_L5_Flex_Ext	L4_L5_Lat_Bending	L4_L5_axial_rotation	L3_L4_Flex_Ext	L3_L4_Lat_Bending	L3_L4_axial_rotation	L2_L3_Flex_Ext	L2_L3_Lat_Bending	L2_L3_axial_rotation	L1_L2_Flex_Ext	L1_L2_Lat_Bending	L1_L2_axial_rotation	L1_T12_Flex_Ext	L1_T12_Lat_Bending	L1_T12_axial_rotation	Abs_r3	Abs_r2	Abs_r1	Abs_t1	Abs_t2	arm_flex_r	arm_add_r	arm_rot_r	elbow_flex_r	pro_sup_r	wrist_flex_r	wrist_dev_r	arm_flex_l	arm_add_l	arm_rot_l	elbow_flex_l	pro_sup_l	wrist_flex_l	wrist_dev_l
     74.39000000	      0.04721772	    -13.88525140	     93.68294112	      0.40572608	      0.84725393	      0.41578092	     49.23536046	     -7.13988888	      0.47586722	      0.73663035	    -42.20580998	      9.28538940	      0.00000000	      0.00000000	     49.42535079	     -4.93509277	     -0.97305445	      0.68783727	    -39.41017262	      8.01597415	      0.00000000	      0.00000000	    -11.15790534	      0.21523616	     -0.13761443	    -20.72134600	      0.28626409	     -0.14621533	    -18.33132268	      0.52332519	     -0.14621533	    -12.75237001	      0.52332519	     -0.12041263	    -10.36123090	      0.43890957	     -0.11181172	     -6.37562711	      0.33340080	     -0.10321082	    -79.69980204	      2.43479444	     -0.76537018	      0.00000000	      0.00000000	     89.30123532	    -15.33977734	     18.51153934	     32.39811378	     71.53907070	     26.74562579	     -0.92457722	     93.86943943	    -15.03233692	     39.25592202	     25.05169513	     53.29097162	     29.83269236	     -7.98920460
     74.40000000	      0.07903504	    -13.90925952	     93.69093577	      0.40575542	      0.84708031	      0.41603672	     49.28089582	     -7.12336208	      0.46103429	      0.73661869	    -42.20514179	      9.28150119	      0.00000000	      0.00000000	     49.48646946	     -4.95920278	     -0.96762848	      0.68790899	    -39.41428157	      8.01626369	      0.00000000	      0.00000000	    -11.16350194	      0.21455966	     -0.14318443	    -20.73173945	      0.28536435	     -0.15213346	    -18.34051734	      0.52168036	     -0.15213346	    -12.75876637	      0.52168036	     -0.12528638	    -10.36642790	      0.43753006	     -0.11633735	     -6.37882501	      0.33235292	     -0.10738832	    -79.73977800	      2.42714182	     -0.79634884	      0.00000000	      0.00000000	     88.93247166	    -15.42596664	     18.22807701	     33.18919990	     70.74886482	     26.73525816	     -0.90729470	     93.78480334	    -15.01414168	     38.63889580	     25.24443522	     52.85207773	     29.84911786	     -7.99892337
     74.41000000	      0.09322104	    -13.89935539	     93.62977497	      0.40594028	      0.84703246	      0.41626533	     49.31674853	     -7.08846520	      0.37576365	      0.73680659	    -42.21590777	      9.21732035	      0.00000000	      0.00000000	     49.52971290	     -5.00392923	     -0.91567548	      0.68938395	    -39.49879094	      7.93206460	      0.00000000	      0.00000000	    -11.17057014	      0.20302963	     -0.13899325	    -20.74486581	      0.27002940	     -0.14768033	    -18.35212968	      0.49364623	     -0.14768033	    -12.76684461	      0.49364623	     -0.12161910	    -10.37299143	      0.41401801	     -0.11293202	     -6.38286378	      0.31449289	     -0.10424494	    -79.79026545	      2.29671174	     -0.77303877	      0.00000000	      0.00000000	     88.67259327	    -15.52817811	     17.96064576	     33.69225487	     70.32239872	     26.66155026	     -0.85077466	     93.62396069	    -15.12193395	     38.07979181	     25.70932994	     52.56464089	     29.89178205	     -8.01368041
     74.42000000	      0.16105058	    -13.88739079	     93.64258530	      0.40602218	      0.84709703	      0.41634820	     49.27651422	     -7.03408427	      0.35516842	      0.73598254	    -42.16869310	      9.03020499	      0.00000000	      0.00000000	     49.56208789	     -5.09592451	     -0.97314906	      0.68994793	    -39.53110438	      7.62137193	      0.00000000	      0.00000000	    -11.17465334	      0.20642114	     -0.17613692	    -20.75244872	      0.27454012	     -0.18714548	    -18.35883798	      0.50189237	     -0.18714548	    -12.77151131	      0.50189237	     -0.15411981	    -10.37678309	      0.42093399	     -0.14311125	     -6.38519692	      0.31974635	     -0.13210269	    -79.81943137	      2.33507725	     -0.97962072	      0.00000000	      0.00000000	     88.47081551	    -15.26272251	     17.72913164	     34.24415963	     70.78688477	     26.21851886	     -0.55504042	     93.01102158	    -15.88441279	     37.09414456	     27.28443721	     52.63568687	     29.94896742	     -7.91897928
     74.43000000	      0.14222795	    -13.92723152	     93.66167520	      0.40607556	      0.84718852	      0.41644436	     49.30447100	     -7.06775818	      0.32761684	      0.73532163	    -42.13082578	      9.05086730	      0.00000000	      0.00000000	     49.58576252	     -5.06129666	     -0.94262669	      0.68898987	    -39.47621140	      7.56373875	      0.00000000	      0.00000000	    -11.16504722	      0.20444706	     -0.19524958	    -20.73460920	      0.27191460	     -0.20745268	    -18.34305608	      0.49709259	     -0.20745268	    -12.76053247	      0.49709259	     -0.17084338	    -10.36786285	      0.41690845	     -0.15864028	     -6.37970798	      0.31668850	     -0.14643718	    -79.75081580	      2.31274609	     -1.08591957	      0.00000000	      0.00000000	     88.05065661	    -15.11402832	     16.73933830	     35.03924296	     73.45162965	     23.84148542	      0.45982735	     92.54695245	    -15.94179679	     34.88426085	     27.95300402	     54.96041788	     29.14663143	     -6.12359791
     74.44000000	      0.13769412	    -13.89152969	     93.67246980	      0.40620433	      0.84742482	      0.41648204	     49.25129521	     -7.07396517	      0.32633653	      0.73504370	    -42.11490190	      9.03337437	      0.00000000	      0.00000000	     49.54486479	     -5.06873278	     -0.93308458	      0.68861173	    -39.45454576	      7.50076381	      0.00000000	      0.00000000	    -11.15621252	      0.20199480	     -0.19258881	    -20.71820226	      0.26865308	     -0.20462561	    -18.32854154	      0.49113015	     -0.20462561	    -12.75043528	      0.49113015	     -0.16851521	    -10.35965894	      0.41190779	     -0.15647841	     -6.37465983	      0.31288994	     -0.14444161	    -79.68771038	      2.28500552	     -1.07112118	      0.00000000	      0.00000000	     87.79794453	    -15.16719590	     16.63016924	     35.34378110	     73.05928931	     23.83092099	      0.47943437	     92.35271690	    -15.95554785	     34.63169836	     28.09453872	     54.74090988	     29.15531823	     -6.11061350
     74.45000000	      0.11813029	    -13.85071562	     93.66051544	      0.40635064	      0.84784270	      0.41646894	     49.16241833	     -7.06502461	      0.33095348	      0.73355395	    -42.02954517	      8.97698418	      0.00000000	      0.00000000	     49.43459784	     -5.06080847	     -0.94084877	      0.68666823	    -39.34319123	      7.28988176	      0.00000000	      0.00000000	    -11.14536005	      0.19915893	     -0.19360191	    -20.69804814	      0.26488138	     -0.20570203	    -18.31071202	      0.48423503	     -0.20570203	    -12.73803200	      0.48423503	     -0.16940167	    -10.34958134	      0.40612489	     -0.15730155	     -6.36845873	      0.30849719	     -0.14520143	    -79.61019228	      2.25292567	     -1.07675575	      0.00000000	      0.00000000	     87.66415770	    -15.15750853	     16.70521115	     35.35216291	     73.06261739	     23.78836491	      0.51537196	     92.12581005	    -16.06775701	     34.60465868	     28.32021522	     54.73955375	     29.14679334	     -6.05630897
